<svg width="102" height="80"><defs id="SvgjsDefs1265"></defs><g id="SvgjsG1266" featurekey="root" fill="#ffffff" transform="matrix(1,0,0,1,0,0)"></g><g id="SvgjsG1267" featurekey="text1" fill="#000000" transform="matrix(4.154157940717048,0,0,4.154157940717048,0.0003092612783882375,-29.63637938717703)"><path d="M6.3281 14.804675 q-0.673828125 0.15625 -1.552734375 0.126953125 q0.1171875 -1.298828125 0.283203125 -2.626953125 q1.50390625 -0.126953125 2.16796875 0.478515625 q0.625 0.5859375 0.107421875 1.46484375 q-0.21484375 0.380859375 -1.005859375 0.556640625 z M4.6191 20.292975 q-0.048828125 -1.19140625 -0.0390625 -2.48046875 q0.810546875 -0.048828125 1.298828125 0.05859375 q0.927734375 0.185546875 1.26953125 0.546875 q0.3125 0.33203125 0.107421875 0.732421875 q-0.17578125 0.37109375 -0.732421875 0.68359375 q-0.56640625 0.3125 -1.26953125 0.419921875 q-0.33203125 0.048828125 -0.634765625 0.0390625 z M11.455 18.300775 q-0.224609375 -0.6640625 -0.5859375 -1.083984375 q-0.3125 -0.37109375 -0.927734375 -0.76171875 q-0.712890625 -0.439453125 -1.103515625 -0.390625 l0.019531 -0.0097656 l0.0097656 0 q0.556640625 -0.05859375 1.103515625 -0.5859375 q0.72265625 -0.693359375 0.869140625 -1.62109375 q0.13671875 -0.849609375 -0.224609375 -1.71875 q-0.341796875 -0.849609375 -1.03515625 -1.46484375 q-0.72265625 -0.64453125 -1.58203125 -0.849609375 q-1.03515625 -0.234375 -2.802734375 -0.244140625 q-1.943359375 -0.009765625 -4.091796875 -0.009765625 q-0.009765625 0 -0.1953125 0.009765625 l-0.17578 0 l-0.19531 0.0097656 q-0.52734375 0.009765625 -0.537109375 -0.01953125 q1.064453125 4.345703125 0.732421875 9.404296875 q-0.107421875 1.708984375 -0.37109375 3.310546875 q-0.087890625 0.5859375 -0.1953125 1.083984375 q-0.078125 0.390625 -0.146484375 0.625 l5.2441 0 q2.626953125 0 4.482421875 -1.025390625 q2.353515625 -1.318359375 1.93359375 -3.779296875 q-0.078125 -0.46875 -0.224609375 -0.87890625 z M17.60743125 15.751975 q-0.09765625 -1.5234375 0.1171875 -3.134765625 q0.83984375 -0.078125 1.58203125 0.244140625 q0.91796875 0.390625 0.849609375 1.259765625 q-0.17578125 2.080078125 -2.548828125 1.630859375 z M12.92968725 9.541375 l-0.078125 0.0097656 l0.039063 0.039063 l-0.058594 0 q1.064453125 4.345703125 0.80078125 9.384765625 q-0.09765625 1.71875 -0.33203125 3.310546875 q-0.087890625 0.576171875 -0.185546875 1.083984375 q-0.078125 0.390625 -0.13671875 0.615234375 l5.2832 0 q-0.634765625 -1.81640625 -0.751953125 -4.5703125 q4.23828125 0.634765625 5.986328125 -1.865234375 q0.634765625 -0.908203125 0.869140625 -2.158203125 q0.185546875 -0.947265625 0.107421875 -1.85546875 q-0.3515625 -3.994140625 -5.48828125 -3.994140625 l-6.0547 0 z"></path></g></svg>